<?xml version="1.0" encoding="UTF-8"?>
<svg width="512px" height="512px" viewBox="0 0 512 512" version="1.1" xmlns="http://www.w3.org/2000/svg" xmlns:xlink="http://www.w3.org/1999/xlink">
    <title>Pencil-Works-LLC-Centered-Twitter-5</title>
    <defs>
        <linearGradient x1="50%" y1="99.429674%" x2="50%" y2="50%" id="linearGradient-1">
            <stop stop-color="#000000" offset="0%"></stop>
            <stop stop-color="#6236FF" offset="66.8521908%"></stop>
            <stop stop-color="#0091FF" offset="77.0326841%"></stop>
            <stop stop-color="#FFFFFF" offset="100%"></stop>
        </linearGradient>
        <path d="M194.677398,39.3547964 L334.08065,318.161301 C339.514414,329.028828 335.109478,342.243635 324.241951,347.677398 C321.187132,349.204808 317.818644,350 314.403252,350 L35.5967478,350 C23.4464833,350 13.5967478,340.150264 13.5967478,328 C13.5967478,324.584608 14.3919398,321.21612 15.9193496,318.161301 L155.322602,39.3547964 C160.756365,28.4872695 173.971172,24.0823338 184.838699,29.5160973 C189.096302,31.6448987 192.548597,35.0971936 194.677398,39.3547964 Z" id="path-2"></path>
        <filter x="-7.0%" y="-3.1%" width="118.5%" height="118.5%" filterUnits="objectBoundingBox" id="filter-3">
            <feMorphology radius="2" operator="dilate" in="SourceAlpha" result="shadowSpreadOuter1"></feMorphology>
            <feOffset dx="8" dy="8" in="shadowSpreadOuter1" result="shadowOffsetOuter1"></feOffset>
            <feGaussianBlur stdDeviation="12" in="shadowOffsetOuter1" result="shadowBlurOuter1"></feGaussianBlur>
            <feComposite in="shadowBlurOuter1" in2="SourceAlpha" operator="out" result="shadowBlurOuter1"></feComposite>
            <feColorMatrix values="0 0 0 0 0   0 0 0 0 0   0 0 0 0 0  0 0 0 0.226469453 0" type="matrix" in="shadowBlurOuter1"></feColorMatrix>
        </filter>
        <mask id="mask-4" maskContentUnits="userSpaceOnUse" maskUnits="objectBoundingBox" x="0" y="0" width="350" height="350" fill="white">
            <use xlink:href="#path-2"></use>
        </mask>
        <path d="M144.677398,89.3547964 L250,300 L250,300 L0,300 L105.322602,89.3547964 C110.756365,78.4872695 123.971172,74.0823338 134.838699,79.5160973 C139.096302,81.6448987 142.548597,85.0971936 144.677398,89.3547964 Z" id="path-5"></path>
        <filter x="-10.5%" y="0.9%" width="124.2%" height="112.3%" filterUnits="objectBoundingBox" id="filter-6">
            <feMorphology radius="1" operator="dilate" in="SourceAlpha" result="shadowSpreadOuter1"></feMorphology>
            <feOffset dx="4" dy="4" in="shadowSpreadOuter1" result="shadowOffsetOuter1"></feOffset>
            <feGaussianBlur stdDeviation="8" in="shadowOffsetOuter1" result="shadowBlurOuter1"></feGaussianBlur>
            <feComposite in="shadowBlurOuter1" in2="SourceAlpha" operator="out" result="shadowBlurOuter1"></feComposite>
            <feColorMatrix values="0 0 0 0 0   0 0 0 0 0   0 0 0 0 0  0 0 0 0.35 0" type="matrix" in="shadowBlurOuter1"></feColorMatrix>
        </filter>
        <mask id="mask-7" maskContentUnits="userSpaceOnUse" maskUnits="objectBoundingBox" x="0" y="0" width="250" height="250" fill="white">
            <use xlink:href="#path-5"></use>
        </mask>
        <path d="M94.6773982,139.354796 L150,250 L150,250 L0,250 L55.3226018,139.354796 C60.7563653,128.487269 73.9711722,124.082334 84.8386991,129.516097 C89.096302,131.644899 92.5485968,135.097194 94.6773982,139.354796 Z" id="path-8"></path>
        <filter x="-17.5%" y="1.5%" width="140.3%" height="120.5%" filterUnits="objectBoundingBox" id="filter-9">
            <feMorphology radius="1" operator="dilate" in="SourceAlpha" result="shadowSpreadOuter1"></feMorphology>
            <feOffset dx="4" dy="4" in="shadowSpreadOuter1" result="shadowOffsetOuter1"></feOffset>
            <feGaussianBlur stdDeviation="8" in="shadowOffsetOuter1" result="shadowBlurOuter1"></feGaussianBlur>
            <feComposite in="shadowBlurOuter1" in2="SourceAlpha" operator="out" result="shadowBlurOuter1"></feComposite>
            <feColorMatrix values="0 0 0 0 0   0 0 0 0 0   0 0 0 0 0  0 0 0 0.35 0" type="matrix" in="shadowBlurOuter1"></feColorMatrix>
        </filter>
        <mask id="mask-10" maskContentUnits="userSpaceOnUse" maskUnits="objectBoundingBox" x="0" y="0" width="150" height="150" fill="white">
            <use xlink:href="#path-8"></use>
        </mask>
    </defs>
    <g id="Pencil-Works-LLC-Centered-Twitter-5" stroke="none" stroke-width="1" fill="none" fill-rule="evenodd" stroke-linecap="round">
        <g id="Group" transform="translate(133.000000, 81.000000)" stroke-linejoin="round">
            <g id="Triangle" stroke-dasharray="222,77" transform="translate(175.000000, 175.000000) rotate(-270.000000) translate(-175.000000, -175.000000) ">
                <use fill="black" fill-opacity="1" filter="url(#filter-3)" xlink:href="#path-2"></use>
                <use stroke="url(#linearGradient-1)" mask="url(#mask-4)" stroke-width="32" fill="#000000" fill-rule="evenodd" xlink:href="#path-2"></use>
            </g>
            <g id="Triangle-Copy" stroke-dasharray="60,77" transform="translate(125.000000, 175.000000) rotate(-270.000000) translate(-125.000000, -175.000000) ">
                <use fill="black" fill-opacity="1" filter="url(#filter-6)" xlink:href="#path-5"></use>
                <use stroke="url(#linearGradient-1)" mask="url(#mask-7)" stroke-width="32" fill="#000000" fill-rule="evenodd" xlink:href="#path-5"></use>
            </g>
            <g id="Triangle-Copy-2" stroke-dasharray="49,77" transform="translate(75.000000, 175.000000) rotate(-270.000000) translate(-75.000000, -175.000000) ">
                <use fill="black" fill-opacity="1" filter="url(#filter-9)" xlink:href="#path-8"></use>
                <use stroke="url(#linearGradient-1)" mask="url(#mask-10)" stroke-width="32" fill="#000000" fill-rule="evenodd" xlink:href="#path-8"></use>
            </g>
        </g>
        <path d="M431.348145,422.113281 C431.348145,423.781576 430.931071,425.335938 430.096924,426.776367 C429.262777,428.216797 428.125488,429.352051 426.685059,430.182129 C425.244629,431.012207 423.690267,431.427246 422.021973,431.427246 C420.361816,431.427246 418.811523,431.012207 417.371094,430.182129 C415.930664,429.352051 414.793376,428.216797 413.959229,426.776367 C413.125081,425.335938 412.708008,423.781576 412.708008,422.113281 C412.708008,420.453125 413.125081,418.900798 413.959229,417.456299 C414.793376,416.0118 415.930664,414.874512 417.371094,414.044434 C418.811523,413.214355 420.361816,412.799316 422.021973,412.799316 C423.690267,412.799316 425.244629,413.214355 426.685059,414.044434 C428.125488,414.874512 429.262777,416.0118 430.096924,417.456299 C430.931071,418.900798 431.348145,420.453125 431.348145,422.113281 Z M429.541504,422.113281 C429.541504,420.038086 428.807048,418.266032 427.338135,416.797119 C425.869222,415.328206 424.097168,414.59375 422.021973,414.59375 C419.946777,414.59375 418.174723,415.328206 416.705811,416.797119 C415.236898,418.266032 414.502441,420.038086 414.502441,422.113281 C414.502441,424.188477 415.236898,425.960531 416.705811,427.429443 C418.174723,428.898356 419.946777,429.632812 422.021973,429.632812 C424.097168,429.632812 425.869222,428.898356 427.338135,427.429443 C428.807048,425.960531 429.541504,424.188477 429.541504,422.113281 Z M424.194824,423.260742 L426.709473,423.858887 C426.400228,424.843587 425.972982,425.600423 425.427734,426.129395 C424.573242,426.951335 423.458333,427.362305 422.083008,427.362305 C420.585612,427.362305 419.364909,426.880127 418.420898,425.915771 C417.476888,424.951416 417.004883,423.675781 417.004883,422.088867 C417.004883,420.583333 417.489095,419.340251 418.45752,418.359619 C419.425944,417.378988 420.638509,416.888672 422.095215,416.888672 C423.275228,416.888672 424.268066,417.201986 425.07373,417.828613 C425.879395,418.455241 426.388021,419.264974 426.599609,420.257812 L424.194824,420.624023 C424.04834,419.964844 423.78182,419.474528 423.395264,419.153076 C423.008708,418.831624 422.538737,418.670898 421.985352,418.670898 C421.350586,418.670898 420.817546,418.941488 420.38623,419.482666 C419.954915,420.023844 419.739258,420.872233 419.739258,422.027832 C419.739258,423.191569 419.885742,424.021647 420.178711,424.518066 C420.610026,425.234212 421.220378,425.592285 422.009766,425.592285 C422.506185,425.592285 422.951742,425.40918 423.346436,425.042969 C423.74113,424.676758 424.023926,424.082682 424.194824,423.260742 Z" id="Shape" stroke="#FFFFFF" stroke-width="0.44" fill="#FFFFFF" fill-rule="nonzero"></path>
    </g>
</svg>