<?xml version="1.0" encoding="UTF-8"?>
<svg width="512px" height="512px" viewBox="0 0 512 512" version="1.1" xmlns="http://www.w3.org/2000/svg" xmlns:xlink="http://www.w3.org/1999/xlink">
    <title>Pencil-Works-LLC-05B 2</title>
    <g id="Pencil-Works-LLC-05B" stroke="none" stroke-width="1" fill="none" fill-rule="evenodd">
        <path d="M251.572811,116.911929 C254.97186,115.778913 258.803141,115.94259 262.26099,117.671515 C264.970374,119.026207 267.167289,121.223122 268.521981,123.932505 L407.925233,402.73901 C409.654158,406.196859 409.817835,410.02814 408.684818,413.427189 C407.551802,416.826238 405.122092,419.793056 401.664243,421.521981 C399.720267,422.493969 397.576684,423 395.403252,423 L116.596748,423 C112.730755,423 109.230755,421.432997 106.697253,418.899495 C104.163751,416.365993 102.596748,412.865993 102.596748,409 C102.596748,406.826569 103.102779,404.682986 104.074767,402.73901 L243.478019,123.932505 C245.206944,120.474656 248.173762,118.044946 251.572811,116.911929 Z" id="Triangle" stroke="#000000" stroke-width="16" transform="translate(256.000000, 256.000000) rotate(-270.000000) translate(-256.000000, -256.000000) "></path>
        <path d="M201.572811,166.911929 C204.97186,165.778913 208.803141,165.94259 212.26099,167.671515 C214.970374,169.026207 217.167289,171.223122 218.521981,173.932505 L318.055728,373 L93.9442719,373 L193.478019,173.932505 C195.206944,170.474656 198.173762,168.044946 201.572811,166.911929 Z" id="Triangle-Copy" stroke="#000000" stroke-width="16" transform="translate(206.000000, 256.000000) rotate(-270.000000) translate(-206.000000, -256.000000) "></path>
        <path d="M151.572811,216.911929 C154.97186,215.778913 158.803141,215.94259 162.26099,217.671515 C164.970374,219.026207 167.167289,221.223122 168.521981,223.932505 L218.055728,323 L93.9442719,323 L143.478019,223.932505 C145.206944,220.474656 148.173762,218.044946 151.572811,216.911929 Z" id="Triangle-Copy-2" stroke="#000000" stroke-width="16" transform="translate(156.000000, 256.000000) rotate(-270.000000) translate(-156.000000, -256.000000) "></path>
        <path d="M431.348145,422.113281 C431.348145,423.781576 430.931071,425.335938 430.096924,426.776367 C429.262777,428.216797 428.125488,429.352051 426.685059,430.182129 C425.244629,431.012207 423.690267,431.427246 422.021973,431.427246 C420.361816,431.427246 418.811523,431.012207 417.371094,430.182129 C415.930664,429.352051 414.793376,428.216797 413.959229,426.776367 C413.125081,425.335938 412.708008,423.781576 412.708008,422.113281 C412.708008,420.453125 413.125081,418.900798 413.959229,417.456299 C414.793376,416.0118 415.930664,414.874512 417.371094,414.044434 C418.811523,413.214355 420.361816,412.799316 422.021973,412.799316 C423.690267,412.799316 425.244629,413.214355 426.685059,414.044434 C428.125488,414.874512 429.262777,416.0118 430.096924,417.456299 C430.931071,418.900798 431.348145,420.453125 431.348145,422.113281 Z M429.541504,422.113281 C429.541504,420.038086 428.807048,418.266032 427.338135,416.797119 C425.869222,415.328206 424.097168,414.59375 422.021973,414.59375 C419.946777,414.59375 418.174723,415.328206 416.705811,416.797119 C415.236898,418.266032 414.502441,420.038086 414.502441,422.113281 C414.502441,424.188477 415.236898,425.960531 416.705811,427.429443 C418.174723,428.898356 419.946777,429.632812 422.021973,429.632812 C424.097168,429.632812 425.869222,428.898356 427.338135,427.429443 C428.807048,425.960531 429.541504,424.188477 429.541504,422.113281 Z M424.194824,423.260742 L426.709473,423.858887 C426.400228,424.843587 425.972982,425.600423 425.427734,426.129395 C424.573242,426.951335 423.458333,427.362305 422.083008,427.362305 C420.585612,427.362305 419.364909,426.880127 418.420898,425.915771 C417.476888,424.951416 417.004883,423.675781 417.004883,422.088867 C417.004883,420.583333 417.489095,419.340251 418.45752,418.359619 C419.425944,417.378988 420.638509,416.888672 422.095215,416.888672 C423.275228,416.888672 424.268066,417.201986 425.07373,417.828613 C425.879395,418.455241 426.388021,419.264974 426.599609,420.257812 L424.194824,420.624023 C424.04834,419.964844 423.78182,419.474528 423.395264,419.153076 C423.008708,418.831624 422.538737,418.670898 421.985352,418.670898 C421.350586,418.670898 420.817546,418.941488 420.38623,419.482666 C419.954915,420.023844 419.739258,420.872233 419.739258,422.027832 C419.739258,423.191569 419.885742,424.021647 420.178711,424.518066 C420.610026,425.234212 421.220378,425.592285 422.009766,425.592285 C422.506185,425.592285 422.951742,425.40918 423.346436,425.042969 C423.74113,424.676758 424.023926,424.082682 424.194824,423.260742 Z" id="Shape" fill="#000000" fill-rule="nonzero"></path>
    </g>
</svg>