<?xml version="1.0" encoding="UTF-8"?>
<svg width="512px" height="512px" viewBox="0 0 512 512" version="1.1" xmlns="http://www.w3.org/2000/svg" xmlns:xlink="http://www.w3.org/1999/xlink">
    <title>Pencil-Works-LLC-Centered-Twitter-XI</title>
    <defs>
        <linearGradient x1="50%" y1="150%" x2="50%" y2="50%" id="linearGradient-1">
            <stop stop-color="#E02020" offset="0%"></stop>
            <stop stop-color="#FA6400" offset="16.7194618%"></stop>
            <stop stop-color="#F7B500" offset="33.3898731%"></stop>
            <stop stop-color="#6DD400" offset="50.0513863%"></stop>
            <stop stop-color="#0091FF" offset="66.5668601%"></stop>
            <stop stop-color="#6236FF" offset="83.3200233%"></stop>
            <stop stop-color="#000000" offset="100%"></stop>
        </linearGradient>
        <linearGradient x1="50%" y1="99.429674%" x2="50%" y2="50%" id="linearGradient-2">
            <stop stop-color="#000000" offset="0%"></stop>
            <stop stop-color="#6236FF" offset="66.8521908%"></stop>
            <stop stop-color="#0091FF" offset="77.0326841%"></stop>
            <stop stop-color="#FFFFFF" offset="100%"></stop>
        </linearGradient>
        <path d="M327.677398,120.354796 L467.08065,399.161301 C472.514414,410.028828 468.109478,423.243635 457.241951,428.677398 C454.187132,430.204808 450.818644,431 447.403252,431 L168.596748,431 C156.446483,431 146.596748,421.150264 146.596748,409 C146.596748,405.584608 147.39194,402.21612 148.91935,399.161301 L288.322602,120.354796 C293.756365,109.487269 306.971172,105.082334 317.838699,110.516097 C322.096302,112.644899 325.548597,116.097194 327.677398,120.354796 Z" id="path-3"></path>
        <filter x="-3.3%" y="0.6%" width="108.8%" height="108.8%" filterUnits="objectBoundingBox" id="filter-4">
            <feMorphology radius="1" operator="dilate" in="SourceAlpha" result="shadowSpreadOuter1"></feMorphology>
            <feOffset dx="4" dy="4" in="shadowSpreadOuter1" result="shadowOffsetOuter1"></feOffset>
            <feGaussianBlur stdDeviation="8" in="shadowOffsetOuter1" result="shadowBlurOuter1"></feGaussianBlur>
            <feComposite in="shadowBlurOuter1" in2="SourceAlpha" operator="out" result="shadowBlurOuter1"></feComposite>
            <feColorMatrix values="0 0 0 0 0   0 0 0 0 0   0 0 0 0 0  0 0 0 0.35 0" type="matrix" in="shadowBlurOuter1"></feColorMatrix>
        </filter>
        <mask id="mask-5" maskContentUnits="userSpaceOnUse" maskUnits="objectBoundingBox" x="0" y="0" width="350" height="350" fill="white">
            <use xlink:href="#path-3"></use>
        </mask>
        <path d="M277.677398,170.354796 L383,381 L383,381 L133,381 L238.322602,170.354796 C243.756365,159.487269 256.971172,155.082334 267.838699,160.516097 C272.096302,162.644899 275.548597,166.097194 277.677398,170.354796 Z" id="path-6"></path>
        <filter x="-10.5%" y="0.9%" width="124.2%" height="112.3%" filterUnits="objectBoundingBox" id="filter-7">
            <feMorphology radius="1" operator="dilate" in="SourceAlpha" result="shadowSpreadOuter1"></feMorphology>
            <feOffset dx="4" dy="4" in="shadowSpreadOuter1" result="shadowOffsetOuter1"></feOffset>
            <feGaussianBlur stdDeviation="8" in="shadowOffsetOuter1" result="shadowBlurOuter1"></feGaussianBlur>
            <feComposite in="shadowBlurOuter1" in2="SourceAlpha" operator="out" result="shadowBlurOuter1"></feComposite>
            <feColorMatrix values="0 0 0 0 0   0 0 0 0 0   0 0 0 0 0  0 0 0 0.35 0" type="matrix" in="shadowBlurOuter1"></feColorMatrix>
        </filter>
        <mask id="mask-8" maskContentUnits="userSpaceOnUse" maskUnits="objectBoundingBox" x="0" y="0" width="250" height="250" fill="white">
            <use xlink:href="#path-6"></use>
        </mask>
        <path d="M227.677398,220.354796 L283,331 L283,331 L133,331 L188.322602,220.354796 C193.756365,209.487269 206.971172,205.082334 217.838699,210.516097 C222.096302,212.644899 225.548597,216.097194 227.677398,220.354796 Z" id="path-9"></path>
        <filter x="-17.5%" y="1.5%" width="140.3%" height="120.5%" filterUnits="objectBoundingBox" id="filter-10">
            <feMorphology radius="1" operator="dilate" in="SourceAlpha" result="shadowSpreadOuter1"></feMorphology>
            <feOffset dx="4" dy="4" in="shadowSpreadOuter1" result="shadowOffsetOuter1"></feOffset>
            <feGaussianBlur stdDeviation="8" in="shadowOffsetOuter1" result="shadowBlurOuter1"></feGaussianBlur>
            <feComposite in="shadowBlurOuter1" in2="SourceAlpha" operator="out" result="shadowBlurOuter1"></feComposite>
            <feColorMatrix values="0 0 0 0 0   0 0 0 0 0   0 0 0 0 0  0 0 0 0.35 0" type="matrix" in="shadowBlurOuter1"></feColorMatrix>
        </filter>
        <mask id="mask-11" maskContentUnits="userSpaceOnUse" maskUnits="objectBoundingBox" x="0" y="0" width="150" height="150" fill="white">
            <use xlink:href="#path-9"></use>
        </mask>
    </defs>
    <g id="Pencil-Works-LLC-Centered-Twitter-XI" stroke="none" stroke-width="1" fill="none" fill-rule="evenodd">
        <rect fill="#FFFFFF" x="0" y="0" width="512" height="512"></rect>
        <g id="Triangle" stroke-linecap="round" stroke-linejoin="round" stroke-dasharray="100,100" transform="translate(308.000000, 256.000000) rotate(-270.000000) translate(-308.000000, -256.000000) ">
            <use fill="black" fill-opacity="1" filter="url(#filter-4)" xlink:href="#path-3"></use>
            <use stroke="url(#linearGradient-2)" mask="url(#mask-5)" stroke-width="28" fill="url(#linearGradient-1)" fill-rule="evenodd" xlink:href="#path-3"></use>
        </g>
        <g id="Triangle-Copy" stroke-linecap="round" stroke-linejoin="round" stroke-dasharray="100,100" transform="translate(258.000000, 256.000000) rotate(-270.000000) translate(-258.000000, -256.000000) ">
            <use fill="black" fill-opacity="1" filter="url(#filter-7)" xlink:href="#path-6"></use>
            <use stroke="url(#linearGradient-2)" mask="url(#mask-8)" stroke-width="28" fill="url(#linearGradient-1)" fill-rule="evenodd" xlink:href="#path-6"></use>
        </g>
        <g id="Triangle-Copy-2" stroke-linecap="round" stroke-linejoin="round" stroke-dasharray="100,100" transform="translate(208.000000, 256.000000) rotate(-270.000000) translate(-208.000000, -256.000000) ">
            <use fill="black" fill-opacity="1" filter="url(#filter-10)" xlink:href="#path-9"></use>
            <use stroke="url(#linearGradient-2)" mask="url(#mask-11)" stroke-width="28" fill="url(#linearGradient-1)" fill-rule="evenodd" xlink:href="#path-9"></use>
        </g>
        <path d="M564,0 L564,512 L52,512 L52,0 L564,0 Z M155,94.5967478 C142.849736,94.5967478 133,104.446483 133,116.596748 L133,395.403252 C133,398.818644 133.795192,402.187132 135.322602,405.241951 C140.756365,416.109478 153.971172,420.514414 164.838699,415.08065 L443.645204,275.677398 C447.902806,273.548597 451.355101,270.096302 453.483903,265.838699 C458.917666,254.971172 454.512731,241.756365 443.645204,236.322602 L164.838699,96.9193496 C161.78388,95.3919398 158.415392,94.5967478 155,94.5967478 Z" id="Rectangle-2" fill="#FFFFFF"></path>
        <path d="M431.348145,422.113281 C431.348145,423.781576 430.931071,425.335938 430.096924,426.776367 C429.262777,428.216797 428.125488,429.352051 426.685059,430.182129 C425.244629,431.012207 423.690267,431.427246 422.021973,431.427246 C420.361816,431.427246 418.811523,431.012207 417.371094,430.182129 C415.930664,429.352051 414.793376,428.216797 413.959229,426.776367 C413.125081,425.335938 412.708008,423.781576 412.708008,422.113281 C412.708008,420.453125 413.125081,418.900798 413.959229,417.456299 C414.793376,416.0118 415.930664,414.874512 417.371094,414.044434 C418.811523,413.214355 420.361816,412.799316 422.021973,412.799316 C423.690267,412.799316 425.244629,413.214355 426.685059,414.044434 C428.125488,414.874512 429.262777,416.0118 430.096924,417.456299 C430.931071,418.900798 431.348145,420.453125 431.348145,422.113281 Z M429.541504,422.113281 C429.541504,420.038086 428.807048,418.266032 427.338135,416.797119 C425.869222,415.328206 424.097168,414.59375 422.021973,414.59375 C419.946777,414.59375 418.174723,415.328206 416.705811,416.797119 C415.236898,418.266032 414.502441,420.038086 414.502441,422.113281 C414.502441,424.188477 415.236898,425.960531 416.705811,427.429443 C418.174723,428.898356 419.946777,429.632812 422.021973,429.632812 C424.097168,429.632812 425.869222,428.898356 427.338135,427.429443 C428.807048,425.960531 429.541504,424.188477 429.541504,422.113281 Z M424.194824,423.260742 L426.709473,423.858887 C426.400228,424.843587 425.972982,425.600423 425.427734,426.129395 C424.573242,426.951335 423.458333,427.362305 422.083008,427.362305 C420.585612,427.362305 419.364909,426.880127 418.420898,425.915771 C417.476888,424.951416 417.004883,423.675781 417.004883,422.088867 C417.004883,420.583333 417.489095,419.340251 418.45752,418.359619 C419.425944,417.378988 420.638509,416.888672 422.095215,416.888672 C423.275228,416.888672 424.268066,417.201986 425.07373,417.828613 C425.879395,418.455241 426.388021,419.264974 426.599609,420.257812 L424.194824,420.624023 C424.04834,419.964844 423.78182,419.474528 423.395264,419.153076 C423.008708,418.831624 422.538737,418.670898 421.985352,418.670898 C421.350586,418.670898 420.817546,418.941488 420.38623,419.482666 C419.954915,420.023844 419.739258,420.872233 419.739258,422.027832 C419.739258,423.191569 419.885742,424.021647 420.178711,424.518066 C420.610026,425.234212 421.220378,425.592285 422.009766,425.592285 C422.506185,425.592285 422.951742,425.40918 423.346436,425.042969 C423.74113,424.676758 424.023926,424.082682 424.194824,423.260742 Z" id="Shape" stroke="#000000" stroke-width="0.44" fill="#000000" fill-rule="nonzero" stroke-linecap="round"></path>
    </g>
</svg>